<svg width="20" height="21" viewBox="0 0 20 21" fill="none" xmlns="http://www.w3.org/2000/svg">
<path fill-rule="evenodd" clip-rule="evenodd" d="M14.0134 20.0022H5.66555C2.59919 20.0022 0.246786 18.8947 0.914978 14.437L1.69301 8.39583C2.10491 6.17157 3.52367 5.32031 4.76852 5.32031H14.947C16.2102 5.32031 17.5466 6.23564 18.0225 8.39583L18.8006 14.437C19.3681 18.3913 17.0797 20.0022 14.0134 20.0022Z" stroke="white" stroke-width="1.5" stroke-linecap="round" stroke-linejoin="round"/>
<path d="M14.1512 5.10166C14.1512 2.71558 12.2169 0.781289 9.83086 0.781289V0.781289C8.68186 0.77642 7.57825 1.22945 6.76406 2.0402C5.94987 2.85096 5.49218 3.95264 5.49219 5.10166H5.49219" stroke="white" stroke-width="1.5" stroke-linecap="round" stroke-linejoin="round"/>
<path d="M12.797 9.6061H12.7512" stroke="white" stroke-width="1.5" stroke-linecap="round" stroke-linejoin="round"/>
<path d="M6.96492 9.6061H6.91916" stroke="white" stroke-width="1.5" stroke-linecap="round" stroke-linejoin="round"/>
</svg>
